<svg width="100%" height="100%" viewBox="0 0 165 200"
     xmlns="http://www.w3.org/2000/svg"
     xmlns:xlink="http://www.w3.org/1999/xlink">

  <title>Deck of Cards</title>

  <desc>
    Deck of Cards

    Based on the openclipart White Deck of individual cards by nicubunu
    for example https://openclipart.org/detail/23117/white-deck-ace-of-clubs

    Click on any card to display the card
    Click on the card to display the deck again

    Cards are symbols for reuse in card games

    Jay Nick
    STEAMcoded.org
  </desc>

  <style type="text/css">
<![CDATA[
    .show {display:initial;}
    .hide {display:none;}

    #cards, #fs {cursor:pointer;}

    .redUniform {fill:url(#redUniform);}
    .navyUniform {fill:url(#navyUniform);}
    .yellowStripe {fill:url(#yellowStripe);}
    .greenTie {fill:url(#greenTie);}
    .redTie {fill:url(#redTie);}

    .blueEyes {fill:#1e2ecf;}
    .brownEyes {fill:#b67870;}

    .blackHair {fill:#000000;}
    .blackishHair {fill:#444433;}
    .brownHair {fill:#6d2b00;}
    .blackMoustache {fill:#000000;}
    .brownMoustache {fill:#6d2b00;}
    .blackBeard {fill:#000000;}
    .brownBeard {fill:#6d2b00;}
  ]]>
  </style>

  <defs>

    <linearGradient id="linearGradient8303">
      <stop id="stop8314" stop-color="#000086" offset="0"/>
      <stop id="stop8316" stop-color="#005aff" offset="1"/>
    </linearGradient>
    <linearGradient id="linearGradient4853" x1="2" gradientUnits="userSpaceOnUse" y1="63.1" gradientTransform="translate(0 -1)" x2="109" y2="128.7">
      <stop id="stop2062" stop-color="#ebf0d0" offset="0"/>
      <stop id="stop2064" stop-color="#ffffeb" offset="1"/>
    </linearGradient>
    <linearGradient id="linearGradient8318" x1="138.23" xlink:href="#linearGradient8303" gradientUnits="userSpaceOnUse" y1="146.62" gradientTransform="scale(.85424 1.1706)" x2="36.52" y2="18.728"/>
    <linearGradient id="linearGradient9086" x1="22.029" xlink:href="#linearGradient8303" gradientUnits="userSpaceOnUse" y1="17.153" gradientTransform="scale(.85537 1.1691)" x2="146.4" y2="140.45"/>

    <pattern id="pattern10642" width="14.142157" patternUnits="userSpaceOnUse" patternTransform="translate(15 -5)" height="13.750009">
      <g id="g10644" transform="translate(31.25 -2.9289)" fill="#fff">
        <rect id="rect10646" transform="rotate(45)" height="5" width="5" y="21.668" x="-17.526"/>
        <rect id="rect10648" transform="rotate(45)" height="5" width="5" y="26.391" x="-12.803"/>
        <rect id="rect10650" transform="rotate(45)" height="5" width="5" y="16.668" x="-12.526"/>
        <rect id="rect10652" transform="rotate(45)" height="5" width="5" y="21.391" x="-7.8033"/>
      </g>
    </pattern>

    <symbol id="b1" viewBox="0 0 140 190">
      <use xlink:href="#card" />
      <g id="b1top">
        <path id="path1385" d="m22.167 10h94.413c8.13 0 14.67 6.541 14.67 14.667v140.25c0 8.12-6.54 14.66-14.67 14.66h-94.413c-8.126 0-14.667-6.54-14.667-14.66v-140.25c0-8.129 6.541-14.67 14.667-14.67z" fill="url(#linearGradient8318)"/>
        <path id="path9846" d="m22.167 10h94.413c8.13 0 14.67 6.541 14.67 14.667v140.25c0 8.12-6.54 14.66-14.67 14.66h-94.413c-8.126 0-14.667-6.54-14.667-14.66v-140.25c0-8.129 6.541-14.67 14.667-14.67z" fill="url(#pattern10642)"/>
        <path id="path2154" d="m22.156 9.375c-8.461 0-15.281 6.82-15.281 15.281v140.25c0 8.46 6.82 15.31 15.281 15.31h94.434c8.46 0 15.29-6.85 15.29-15.31v-140.25c0-8.465-6.83-15.285-15.29-15.285h-94.434zm0 1.25h94.434c7.79 0 14.03 6.241 14.03 14.031v140.25c0 7.79-6.24 14.06-14.03 14.06h-94.434c-7.79 0-14.031-6.27-14.031-14.06v-140.25c0-7.794 6.241-14.035 14.031-14.035z" fill="url(#linearGradient9086)"/>
      </g>
    </symbol>
  </defs>


  <g transform="translate(5,5)">
    <g id="cards">
      <g transform="translate(0,144)">
        <use id="11d" x="20" width="35" height="47.5" xlink:href="#d11" />
        <use id="b1" x="60" width="35" height="47.5" xlink:href="#b1"/>
      </g>
    </g>

    <use id="fs" x="7.5" width="140" height="190" xlink:href="#h9" class="hide" />
  </g>
</svg>
